<svg width="78" height="60" viewBox="0 0 78 60" fill="none" xmlns="http://www.w3.org/2000/svg">
<path d="M47.2508 28.2541C47.5243 27.9827 47.9669 27.9841 48.2389 28.2569C48.5108 28.5304 48.5094 28.9729 48.2362 29.245L45.9379 31.531L45.8273 31.6197C45.5558 31.7978 45.1878 31.7672 44.9498 31.5283C44.678 31.2546 44.6789 30.8108 44.9525 30.5388L47.2508 28.2541Z" fill="#726965"/>
<path fill-rule="evenodd" clip-rule="evenodd" d="M2.75554 0.013648C5.74887 0.506104 7.95183 2.23916 9.74333 3.91289C10.1927 4.33275 10.6256 4.75665 11.0358 5.15895C11.4497 5.56489 11.8409 5.94819 12.2259 6.30266C12.9083 6.93095 13.5246 7.42695 14.123 7.7589L16.5905 7.51733C16.6445 7.5087 16.6997 7.50373 16.7557 7.50368H73.9163L74.0323 7.51051C74.2988 7.54018 74.5461 7.67127 74.7202 7.879C75.4268 8.72338 75.9196 9.99827 76.2734 11.2978C76.6363 12.6314 76.8889 14.1319 77.0458 15.5355C77.2026 16.939 77.2679 18.2795 77.2465 19.301C77.2358 19.8058 77.2028 20.267 77.14 20.6304C77.1095 20.8068 77.0633 21.0083 76.9871 21.194C76.9489 21.2873 76.8886 21.4126 76.7933 21.5366C76.7235 21.6273 76.6102 21.7506 76.4426 21.8478L76.2556 21.9337C76.1499 21.9718 76.039 21.9938 75.9267 21.9965L53.0226 22.5534L53.0239 22.5547C52.5792 22.5673 52.241 22.9199 52.2405 23.3518V23.3572L52.2337 24.6238H53.2614C53.6471 24.6238 53.9599 24.9369 53.9602 25.3225C53.9602 25.7085 53.6473 26.0213 53.2614 26.0213H52.2269L52.19 33.7638H52.6309L52.7715 33.7775C53.0899 33.8425 53.3294 34.1251 53.3297 34.4626C53.3296 34.8004 53.09 35.0827 52.7715 35.1478L52.6309 35.1614H52.1832L52.0727 57.7926C52.0711 58.1253 51.9115 58.4384 51.6428 58.6346C51.3363 58.8584 50.9558 58.9975 50.6151 59.0932C50.2544 59.1944 49.8421 59.2729 49.4099 59.3321C48.5444 59.4505 47.523 59.504 46.5166 59.5013C45.5096 59.4986 44.4867 59.4392 43.6191 59.3198C43.1861 59.2602 42.7739 59.1826 42.414 59.085C42.0726 58.9924 41.6986 58.8605 41.3958 58.6565C41.1076 58.4617 40.9347 58.1364 40.9345 57.7885V23.2822C40.9342 22.8503 40.5814 22.4838 40.1361 22.4715L16.8935 21.9992C16.8512 22.0042 16.8087 22.0118 16.7652 22.0115L16.6588 22.0061L14.168 21.7358C13.775 22.011 13.2487 22.4842 12.5671 23.1402C11.7728 23.9048 10.8125 24.871 9.79655 25.7838C8.77575 26.701 7.64501 27.6145 6.45552 28.3019C5.34398 28.9442 4.11965 29.425 2.84152 29.4825L2.58494 29.4879L2.41024 29.4743L1.41803 29.3064L1.41394 29.305C0.59596 29.1628 0.000283484 28.4652 0 27.6291L0 1.71965C0 0.919305 0.585772 0.20635 1.42622 0.118738L2.47439 0.00545921L2.61496 0C2.66194 0.00133026 2.70905 0.00600695 2.75554 0.013648ZM17.5609 9.60002C17.1625 11.3048 17.0105 13.483 17.0491 15.5219C17.0712 16.6845 17.1551 17.7738 17.2798 18.6678C17.3508 19.1767 17.4337 19.5937 17.5145 19.9138L40.1866 20.3751H40.1948L40.4841 20.3983C41.9147 20.5807 43.0306 21.8008 43.0309 23.2822V32.6324C43.2462 32.5968 43.4752 32.6612 43.6409 32.8276C43.897 33.0852 43.908 33.49 43.6805 33.7638H44.1227C44.5084 33.7638 44.8212 34.077 44.8215 34.4626C44.8214 34.8485 44.5086 35.1614 44.1227 35.1614H43.0309V57.0774C43.2672 57.1375 43.5618 57.1952 43.9057 57.2425C44.6594 57.3463 45.585 57.4024 46.522 57.405C47.4595 57.4075 48.3808 57.3568 49.1261 57.2548C49.4645 57.2085 49.7507 57.1494 49.9791 57.0897L50.0869 35.1614H48.3768C47.991 35.1613 47.678 34.8484 47.678 34.4626C47.6783 34.0771 47.9912 33.764 48.3768 33.7638H50.0937L50.1251 27.1555C49.9193 27.1797 49.7052 27.1158 49.5478 26.9576C49.276 26.6838 49.2769 26.2414 49.5505 25.9695L50.1333 25.3881L50.1442 23.3463C50.1475 21.7694 51.4005 20.5037 52.9653 20.4598H52.9693L75.1146 19.9179C75.1302 19.736 75.1447 19.5142 75.1501 19.256C75.1692 18.3448 75.1105 17.0989 74.9618 15.7676C74.8129 14.4361 74.5772 13.049 74.2507 11.8492C73.988 10.884 73.6852 10.1187 73.3731 9.60002H17.5609ZM2.09634 2.15366V27.2933L2.65181 27.3875C3.49868 27.3716 4.42051 27.0574 5.40598 26.4881C6.41325 25.9061 7.42066 25.1005 8.39627 24.2239C9.37674 23.3429 10.2734 22.4381 11.1136 21.6294C11.9065 20.8661 12.7148 20.1202 13.416 19.7364L13.562 19.6709C13.7115 19.6166 13.872 19.5965 14.0315 19.6136L15.3336 19.7528C15.2852 19.4969 15.2406 19.2298 15.2025 18.9571C15.0645 17.9671 14.9775 16.7929 14.9541 15.5615C14.9182 13.6661 15.0348 11.5637 15.3881 9.74059L14.022 9.87571C13.8311 9.89442 13.638 9.86049 13.4651 9.77744C12.501 9.3138 11.6248 8.59821 10.8065 7.84488C10.3934 7.46455 9.97811 7.0591 9.56727 6.65614C9.15279 6.24962 8.7402 5.84332 8.31301 5.4442C6.62781 3.86978 4.84003 2.52165 2.54263 2.10589L2.09634 2.15366Z" fill="#726965"/>
<path d="M69.1095 45.9788L66.3117 45.3647C64.5583 48.9071 61.1299 51.1772 56.3636 51.1774C55.9777 51.1774 55.6648 50.8645 55.6648 50.4786C55.6652 50.0929 55.9779 49.7798 56.3636 49.7798C60.4616 49.7797 63.3427 47.9364 64.8991 45.0549L62.1627 44.4557L66.9572 39.2149L69.1095 45.9788Z" fill="#726965"/>
<path d="M61.1391 33.7638C61.5245 33.7641 61.8375 34.0772 61.8378 34.4626C61.8378 34.8483 61.5247 35.1611 61.1391 35.1614H56.885C56.4991 35.1614 56.1862 34.8485 56.1862 34.4626C56.1865 34.077 56.4992 33.7638 56.885 33.7638H61.1391Z" fill="#726965"/>
<path d="M69.6459 33.7638C70.0316 33.7638 70.3443 34.077 70.3447 34.4626C70.3446 34.8485 70.0318 35.1614 69.6459 35.1614H65.3918C65.0061 35.1611 64.693 34.8483 64.693 34.4626C64.6933 34.0772 65.0063 33.7641 65.3918 33.7638H69.6459Z" fill="#726965"/>
<path d="M76.8943 31.5774C77.2766 31.6289 77.5446 31.9813 77.4935 32.3636L77.4252 32.818C77.3507 33.2612 77.2572 33.668 77.1441 34.0027C77.0694 34.2237 76.9756 34.4439 76.8548 34.6291C76.7579 34.7775 76.5928 34.9821 76.3348 35.0932L76.2188 35.1341C76.1563 35.1519 76.0912 35.1614 76.0263 35.1614H73.9C73.5141 35.1614 73.2012 34.8485 73.2012 34.4626C73.2015 34.077 73.5142 33.7638 73.9 33.7638H75.7383C75.7624 33.7116 75.7906 33.6427 75.8202 33.555C75.9303 33.2292 76.0317 32.7547 76.1096 32.1766L76.1423 32.0387C76.2496 31.7325 76.5601 31.5326 76.8943 31.5774Z" fill="#726965"/>
<path d="M76.1846 24.6415C76.2362 24.6535 76.2869 24.6713 76.3348 24.6947C76.8072 24.9264 77.0569 25.4287 77.2028 25.833C77.3236 26.1681 77.4151 26.5608 77.4839 26.9808L77.5453 27.408L77.5494 27.5499C77.5242 27.8738 77.2743 28.1467 76.9394 28.1886C76.6042 28.2304 76.2941 28.0272 76.1901 27.7191L76.1587 27.5813L76.1041 27.2019C76.0449 26.8418 75.9722 26.5388 75.8885 26.3066C75.8372 26.1646 75.7891 26.0759 75.7561 26.0213H73.9573C73.5714 26.0213 73.2585 25.7085 73.2585 25.3225C73.2588 24.9369 73.5716 24.6238 73.9573 24.6238H76.0263L76.1846 24.6415Z" fill="#726965"/>
<path d="M61.5403 24.6238C61.9259 24.6239 62.2388 24.937 62.2391 25.3225C62.2391 25.7084 61.9261 26.0212 61.5403 26.0213H57.4009C57.015 26.0213 56.7021 25.7084 56.7021 25.3225C56.7024 24.9369 57.0152 24.6238 57.4009 24.6238H61.5403Z" fill="#726965"/>
<path d="M69.8178 24.6238C70.2036 24.6238 70.5163 24.9369 70.5166 25.3225C70.5166 25.7085 70.2038 26.0213 69.8178 26.0213H65.6798C65.2938 26.0213 64.981 25.7085 64.981 25.3225C64.9813 24.9369 65.294 24.6238 65.6798 24.6238H69.8178Z" fill="#726965"/>
</svg>
