<svg width="46" height="40" viewBox="0 0 46 40" fill="none" xmlns="http://www.w3.org/2000/svg">
<path fill-rule="evenodd" clip-rule="evenodd" d="M45.2037 14.3752C43.8165 19.6334 41.2448 24.1216 37.466 27.8795C36.5167 28.8234 33.8069 30.9782 32.837 31.5602C32.3341 31.8619 32.3104 31.8649 28.8988 32.042C27.011 32.14 25.4625 32.2501 25.4575 32.2867C25.4438 32.3889 26.2917 32.7621 26.8934 32.9187C27.72 33.1339 27.9478 33.3382 27.8882 33.8111C27.7534 34.8804 24.1876 36.9369 21.4201 37.5416C19.7761 37.9007 18.6275 37.9471 16.6336 37.7349C14.6212 37.5207 14.4014 37.4474 14.233 36.9337C14.12 36.589 14.3425 36.1017 14.6687 35.9794C14.8067 35.9276 15.3601 35.9648 16.1102 36.0763C19.2843 36.5481 22.3791 35.9682 24.8577 34.4368L25.3413 34.1379L24.8491 33.8389C24.1426 33.4095 23.2317 32.5285 22.9965 32.0472C22.7421 31.5265 22.8274 31.0614 23.2165 30.8471C23.4112 30.7399 24.7191 30.6344 27.7729 30.4795L32.0561 30.2623L33.4402 29.1925C34.2015 28.6042 34.81 28.1042 34.7924 28.0814C34.7749 28.0586 34.4195 28.0685 34.0026 28.1034C32.9935 28.1879 30.9651 28.0046 30.4288 27.7804C30.2017 27.6854 29.94 27.5092 29.8474 27.3887C29.6331 27.11 29.6915 26.6561 29.9763 26.3868C30.1909 26.1838 30.2438 26.1834 31.7256 26.3727C33.6456 26.6179 34.6608 26.5304 36.2392 25.9834L37.3314 25.6049L38.0786 24.7438C38.8105 23.9004 40.6474 21.3452 40.5328 21.3301C40.5008 21.3258 40.2014 21.4164 39.8674 21.5314C39.0537 21.8114 38.5757 21.891 38.0681 21.831C37.7285 21.7909 37.6062 21.7223 37.4506 21.4849C37.0405 20.8593 37.4436 20.3371 38.4463 20.1949C39.6387 20.0259 41.1396 19.3473 41.8552 18.6538C42.0515 18.4635 42.2947 18.0117 42.555 17.354C44.3653 12.7784 44.817 7.86076 43.8613 3.12991C43.746 2.559 43.6304 2.01151 43.6044 1.9132C43.561 1.74834 43.5075 1.74612 42.9134 1.88503C41.2596 2.27182 38.9937 3.16634 37.4458 4.04361C36.5165 4.57031 36.1456 4.62434 35.7765 4.28641C35.5316 4.06229 35.4827 3.62938 35.6674 3.31958C35.9377 2.86622 38.6174 1.53478 40.5866 0.875356C42.1329 0.357551 43.8747 -0.0507652 44.298 0.00518149C44.6723 0.0546414 44.9018 0.404234 45.1351 1.28038C45.6327 3.14892 45.9519 5.42832 46.0069 7.5052C46.0451 8.9478 45.5752 12.967 45.2037 14.3752ZM37.1131 14.7689C36.3792 15.7431 32.8322 19.4415 30.9243 21.222C22.7427 28.8572 13.2793 34.7763 2.80435 38.8102C1.77013 39.2085 0.812173 39.5196 0.675381 39.5015C0.247178 39.4449 -0.051003 39.0437 0.00727588 38.6027C0.0694391 38.1324 0.258664 38.0143 1.9392 37.3981C3.54533 36.8091 5.60554 35.9475 7.40764 35.1112C8.2386 34.7255 8.93342 34.3989 8.95165 34.3852C8.96996 34.3715 8.90974 33.889 8.81792 33.3129C8.34784 30.3647 8.83863 27.0589 10.1435 24.3826C10.5435 23.5622 10.7857 23.3595 11.2867 23.4257C11.6348 23.4717 11.8307 23.708 12.1334 24.4468C12.3303 24.9276 12.7744 25.5587 12.7936 25.3852C12.7992 25.3346 12.7862 24.9271 12.7648 24.4798C12.6671 22.4368 13.2464 20.5474 14.4109 19.1117C15.5961 17.6502 23.0534 11.064 23.6932 10.9134C24.0454 10.8307 24.5815 11.155 24.6032 11.4641C24.6124 11.594 24.5939 12.0894 24.5624 12.5651C24.5036 13.4485 24.6351 14.5358 24.8866 15.2463C24.964 15.4649 25.0387 15.6453 25.0528 15.6471C25.0667 15.649 25.123 15.1762 25.1778 14.5966C25.4211 12.0236 26.349 9.81726 27.8176 8.31909C28.8645 7.25126 31.2184 5.68117 32.6687 5.08339C33.0763 4.9154 33.3956 5.06125 33.615 5.51559C33.7464 5.78765 33.7336 5.83415 33.2309 6.90905C32.4009 8.68397 32.2166 9.33187 31.9452 11.428L31.7045 13.2878L31.4214 13.4552C31.0527 13.6732 30.7336 13.6236 30.4489 13.3041C30.2697 13.103 30.2177 12.9021 30.2118 12.3888C30.201 11.4662 30.4425 9.79744 30.7282 8.81995C30.861 8.36519 30.9585 7.97557 30.9448 7.95416C30.8902 7.86884 29.8626 8.58917 29.3257 9.08923C27.3706 10.9102 26.6028 13.44 26.7568 17.554C26.7885 18.4006 26.7739 18.5077 26.5919 18.7684C26.2071 19.3192 25.6893 19.2001 24.942 18.3889C23.9711 17.3348 23.1281 15.5618 22.9797 14.2618C22.9507 14.0079 22.9147 13.7381 22.8996 13.6621C22.8687 13.5057 22.4763 13.8221 20.3353 15.7309C18.3519 17.4992 16.2462 19.482 15.7746 20.0255C15.2652 20.6126 14.7153 21.7454 14.5237 22.6026C14.321 23.5094 14.3617 25.0432 14.6267 26.4825C14.816 27.5106 14.8208 27.6617 14.6723 27.8887C14.5808 28.0286 14.3738 28.186 14.2124 28.2386C13.9633 28.3195 13.8509 28.3009 13.4699 28.1152C12.8336 27.8052 12.1709 27.2783 11.645 26.6644C11.3959 26.3737 11.166 26.1676 11.1342 26.2066C10.8127 26.5998 10.279 29.3362 10.2645 30.6658C10.2533 31.687 10.3978 33.3025 10.5147 33.4643C10.602 33.5852 12.9412 32.3397 15.3514 30.8891C22.5642 26.5481 29.3891 20.9555 34.7304 15.0092C35.9544 13.6466 36.2606 13.3903 36.6097 13.4364C36.9178 13.4771 37.3934 14.0373 37.3511 14.3096C37.3356 14.4091 37.2285 14.6158 37.1131 14.7689Z" fill="#ADACAC"/>
</svg>
