<svg width="55" height="58" viewBox="0 0 55 58" fill="none" xmlns="http://www.w3.org/2000/svg">
<path fill-rule="evenodd" clip-rule="evenodd" d="M27.872 23.3003C34.7476 23.3006 40.3229 28.8771 40.3231 35.7528C40.3231 42.6286 34.7477 48.2049 27.872 48.2052C20.996 48.2052 15.4195 42.6288 15.4195 35.7528C15.4197 28.877 20.9961 23.3003 27.872 23.3003ZM34.0204 29.9674C33.4474 29.3944 32.5107 29.3944 31.9377 29.9674L28.0672 33.838H27.7737L23.9018 29.9674C23.3288 29.3947 22.3934 29.3946 21.8205 29.9674C21.2475 30.5404 21.2475 31.4771 21.8205 32.0501L26.4185 36.6481V43.2155C26.4185 44.0261 27.0748 44.684 27.8993 44.684C28.7238 44.684 29.3815 44.0261 29.3815 43.2155V36.6754L34.0068 32.0501H34.0204C34.5934 31.4771 34.5934 30.5404 34.0204 29.9674Z" fill="#726965"/>
<path fill-rule="evenodd" clip-rule="evenodd" d="M24.9363 0.995359C26.6832 -0.318316 29.0591 -0.331329 30.82 0.954415L32.4141 2.1145C32.9869 2.53329 33.7409 2.61619 34.3835 2.33696C36.2143 1.5683 38.2558 1.9326 39.6953 3.28823C41.1483 4.64382 41.6379 6.65625 40.9673 8.54271L40.3777 10.2187C41.9088 9.97579 43.3393 9.70252 44.644 9.40527C46.4355 8.99713 47.9781 8.5489 49.2134 8.09233C50.4656 7.62944 51.3388 7.18025 51.8406 6.79167L53.1236 8.44854C52.3712 9.03112 51.2643 9.56933 49.9395 10.059C48.5973 10.5551 46.9637 11.0259 45.1094 11.4484C43.7889 11.7492 42.3492 12.0243 40.8144 12.27C44.9621 18.3289 47.9016 25.0252 49.5614 32.2179L51.5322 40.7848C52.4825 44.055 53.3635 47.6187 54.1321 51.2801C54.4535 52.8173 54.0612 54.3972 53.069 55.627C52.0627 56.8565 50.5812 57.5691 48.9882 57.5691H6.72711C5.13395 57.5691 3.65123 56.8568 2.64499 55.627C1.87633 54.6907 1.47126 53.5299 1.47126 52.3419H1.48627C1.48628 51.9927 1.52698 51.6294 1.59682 51.2801C2.3515 47.6185 3.23212 44.0543 4.21041 40.7002L6.16754 32.2179C7.79812 25.1521 10.6648 18.5542 14.7085 12.5784C9.57872 11.8498 4.5306 10.5789 0 8.57956L0.846177 6.66065C5.31848 8.63431 10.3547 9.87668 15.4932 10.5708L14.7631 8.48676C14.1063 6.61414 14.5944 4.61552 16.0337 3.24592C17.4731 1.89039 19.4998 1.5129 21.3305 2.26735L21.4984 2.33696C22.1551 2.60247 22.9098 2.51897 23.4828 2.08584L24.9363 0.995359ZM37.5539 12.7231C35.6873 12.9461 33.7192 13.1242 31.6825 13.2363C27.3521 13.4744 22.687 13.4307 18.0127 12.9729C13.7098 18.9809 10.6888 25.6684 9.03226 32.8744L7.06149 41.4413C6.08322 44.7953 5.21724 48.2753 4.47655 51.867C4.33681 52.5378 4.50462 53.2371 4.93785 53.7682C5.38506 54.3129 6.04218 54.6198 6.74076 54.6198H49.0032C49.7015 54.6196 50.3577 54.3126 50.8048 53.7682C51.238 53.2371 51.4198 52.5378 51.2661 51.867C50.5254 48.2753 49.6588 44.7951 48.7084 41.5109L46.7104 32.8608C45.0298 25.555 41.9406 18.7876 37.5539 12.7231ZM29.088 3.30187C28.3753 2.7708 27.4096 2.78445 26.6969 3.31552L25.2447 4.406C23.8472 5.45415 21.9881 5.69095 20.3669 5.02016L20.1991 4.95056C19.4444 4.64311 18.6477 4.78329 18.0468 5.34225C17.446 5.90114 17.2643 6.69741 17.5295 7.46589L18.7592 10.9393C23.1173 11.336 27.4792 11.3689 31.5679 11.144C33.4922 11.0382 35.3511 10.8744 37.1144 10.6677L38.2131 7.5505C38.4926 6.78185 38.2968 5.97088 37.6958 5.41186C37.1325 4.88802 36.3848 4.71964 35.6718 4.96557L35.2283 5.13617C33.7063 5.66208 31.9909 5.41826 30.6808 4.46196L29.088 3.30187Z" fill="#726965"/>
</svg>
