<svg width="57" height="57" viewBox="0 0 57 57" fill="none" xmlns="http://www.w3.org/2000/svg">
<path d="M10.5218 7.3047C15.2934 3.26346 21.4669 0.826416 28.2096 0.826416C43.3329 0.826416 55.5927 13.0862 55.5927 28.2095C55.5927 43.3328 43.3329 55.5926 28.2096 55.5926C13.0863 55.5926 0.82645 43.3328 0.82645 28.2095C0.82645 21.726 3.0798 15.7687 6.846 11.0781" stroke="#ADACAC" stroke-width="1.6529" stroke-miterlimit="10" stroke-linecap="round" stroke-linejoin="round"/>
<path d="M28.2097 49.9559C40.2198 49.9559 49.956 40.2197 49.956 28.2095C49.956 16.1993 40.2198 6.46313 28.2097 6.46313C16.1995 6.46313 6.46328 16.1993 6.46328 28.2095C6.46328 40.2197 16.1995 49.9559 28.2097 49.9559Z" stroke="#ADACAC" stroke-width="1.6529" stroke-miterlimit="10" stroke-linecap="round" stroke-linejoin="round"/>
<path d="M30.7502 38.3231C30.6597 42.414 29.5364 46.4156 27.4849 49.956M27.4849 6.46313L26.6888 9.11505C25.8384 11.9474 25.5126 14.9113 25.7274 17.8608M23.5711 37.4726C20.579 40.4028 16.8797 42.509 12.8328 43.5866M43.5868 12.8324L41.1487 14.1447C38.5555 15.5403 36.2378 17.3961 34.3089 19.6214M18.0962 30.7499C14.0053 30.6594 10.0037 29.5362 6.46328 27.4847M49.9561 27.4847L47.3042 26.6885C44.3959 25.8153 41.3495 25.4954 38.3232 25.7455M19.1137 23.7397C16.0975 20.7194 13.931 16.9572 12.8327 12.8325M43.5868 43.5866L42.2745 41.1484C40.8996 38.5938 39.078 36.3062 36.8961 34.3941" stroke="#ADACAC" stroke-width="1.6529" stroke-miterlimit="10" stroke-linecap="round" stroke-linejoin="round"/>
<path d="M28.2096 38.3231C33.7952 38.3231 38.3233 33.795 38.3233 28.2094C38.3233 22.6238 33.7952 18.0957 28.2096 18.0957C22.624 18.0957 18.0959 22.6238 18.0959 28.2094C18.0959 33.795 22.624 38.3231 28.2096 38.3231Z" stroke="#ADACAC" stroke-width="1.6529" stroke-miterlimit="10" stroke-linecap="round" stroke-linejoin="round"/>
<path d="M32.5542 30.7504C31.6807 32.2409 30.0619 33.2416 28.2096 33.2416C25.4303 33.2416 23.1772 30.9886 23.1772 28.2093C23.1772 25.43 25.4303 23.177 28.2096 23.177C30.4161 23.177 32.291 24.5972 32.97 26.5733M27.1114 27.1111L29.3077 29.3075M29.3077 27.1111L27.1114 29.3075" stroke="#ADACAC" stroke-width="1.6529" stroke-miterlimit="10" stroke-linecap="round" stroke-linejoin="round"/>
</svg>
