<svg width="79" height="79" viewBox="0 0 79 79" fill="none" xmlns="http://www.w3.org/2000/svg">
<path d="M0 39.2646C1.5915e-05 29.969 3.23168 21.4248 8.63184 14.6992C9.02956 14.2039 9.75365 14.1248 10.249 14.5225C10.7444 14.9202 10.8235 15.6443 10.4258 16.1396C5.34168 22.4716 2.3008 30.5115 2.30078 39.2646C2.30078 59.6793 18.85 76.2285 39.2646 76.2285C59.6793 76.2285 76.2285 59.6793 76.2285 39.2646C76.2285 18.85 59.6793 2.30078 39.2646 2.30078C30.162 2.3008 21.8303 5.58937 15.3887 11.0449C14.9039 11.4555 14.1782 11.3958 13.7676 10.9111C13.357 10.4263 13.4175 9.70063 13.9023 9.29004C20.7438 3.49579 29.5974 1.65506e-05 39.2646 0C60.9499 0 78.5293 17.5794 78.5293 39.2646C78.5293 60.95 60.95 78.5293 39.2646 78.5293C17.5794 78.5293 0 60.9499 0 39.2646Z" fill="#746D68"/>
<path d="M68.3826 39.2646C68.3826 23.1831 55.346 10.1465 39.2645 10.1465C23.1829 10.1465 10.1463 23.1831 10.1463 39.2646C10.1463 55.3462 23.1829 68.3828 39.2645 68.3828C55.346 68.3828 68.3826 55.3462 68.3826 39.2646ZM70.6834 39.2646C70.6834 56.6168 56.6166 70.6836 39.2645 70.6836C21.9123 70.6836 7.8455 56.6168 7.8455 39.2646C7.84553 21.9125 21.9123 7.84573 39.2645 7.8457C56.6166 7.8457 70.6834 21.9125 70.6834 39.2646Z" fill="#746D68"/>
<path d="M39.2508 70.1104C38.9322 70.6599 38.2281 70.8469 37.6785 70.5284C37.1293 70.2097 36.9423 69.5066 37.2605 68.9571L39.2508 70.1104ZM42.826 52.1915C43.4611 52.2055 43.965 52.7321 43.951 53.3673C43.8207 59.2552 42.2035 65.0147 39.2508 70.1104L37.2605 68.9571C40.0188 64.197 41.5285 58.8166 41.6502 53.3165C41.6642 52.6813 42.1909 52.1775 42.826 52.1915ZM52.1131 47.0079C55.2534 49.7598 57.8754 53.0527 59.8543 56.7296L61.6805 60.1231L61.7313 60.2296C61.9541 60.7682 61.7371 61.3985 61.2127 61.6807C60.6881 61.9629 60.0423 61.7967 59.7156 61.3135L59.6551 61.213L57.8279 57.8194C55.9793 54.3847 53.53 51.3091 50.5965 48.7383L52.1131 47.0079ZM32.0027 51.336C32.4566 50.8915 33.1852 50.8997 33.6297 51.3536C34.074 51.8074 34.0667 52.5351 33.6131 52.9796L33.2059 53.3721C28.9731 57.3853 23.8003 60.277 18.158 61.7794L18.0428 61.8038C17.4669 61.8964 16.9031 61.5396 16.7498 60.9639C16.5864 60.3502 16.9516 59.7203 17.5652 59.5567L18.074 59.4161C23.3163 57.9292 28.1056 55.1525 32.0027 51.336ZM50.49 47.1153C50.9087 46.6375 51.6353 46.5893 52.1131 47.0079L50.5965 48.7383C50.1189 48.3197 50.0715 47.593 50.49 47.1153ZM8.00078 37.6788C8.29946 37.1637 8.93629 36.9674 9.46758 37.2071L9.57305 37.2608L10.0203 37.5157C14.6687 40.1121 19.8845 41.5325 25.2127 41.6505C25.8479 41.6645 26.3517 42.1911 26.3377 42.8262C26.3245 43.4216 25.8612 43.9012 25.2801 43.9473L25.1619 43.9512L24.6102 43.9346C19.0986 43.7255 13.7146 42.214 8.89922 39.5245L8.41875 39.251L8.32012 39.1866C7.84807 38.8447 7.70225 38.194 8.00078 37.6788ZM53.2469 34.6885C57.6024 34.3287 61.9868 34.7892 66.1727 36.046L69.8641 37.1544C70.4725 37.3371 70.8172 37.9785 70.6346 38.587C70.4517 39.1951 69.8111 39.5399 69.2029 39.3575L65.5115 38.2491C61.6012 37.0751 57.5052 36.6453 53.4363 36.9815C52.8032 37.0338 52.2474 36.5629 52.1951 35.9298C52.1428 35.2966 52.6137 34.7409 53.2469 34.6885ZM17.5652 16.7501C18.1407 16.5968 18.731 16.908 18.9373 17.4532L18.9734 17.5655L19.116 18.0841C20.6333 23.4264 23.4892 28.2966 27.4178 32.2305C27.8667 32.6801 27.8663 33.4086 27.4168 33.8575C26.9673 34.3063 26.2387 34.3059 25.7898 33.8565C21.4487 29.5095 18.3306 24.0939 16.7498 18.1573C16.5866 17.5436 16.9516 16.9136 17.5652 16.7501ZM48.6229 28.0645C48.2067 28.5444 47.4808 28.5958 47.0008 28.1798C46.5208 27.7637 46.4686 27.0377 46.8846 26.5577L48.6229 28.0645ZM60.1229 16.8487C60.6822 16.5477 61.3794 16.7571 61.6805 17.3165C61.9816 17.8759 61.7721 18.573 61.2127 18.8741L57.8191 20.7012C54.3326 22.5776 51.2162 25.0727 48.6229 28.0645L46.8846 26.5577C49.6608 23.3549 52.9969 20.6835 56.7293 18.6749L60.1229 16.8487ZM37.1541 8.66511C37.3369 8.05681 37.9783 7.71196 38.5867 7.8946C39.195 8.07738 39.5399 8.71882 39.3572 9.32722L38.2498 13.0176C37.1779 16.5878 36.7252 20.3139 36.9109 24.0333L36.9568 24.7764L36.9598 24.8946C36.9432 25.4773 36.4873 25.9645 35.8934 26.0079C35.2992 26.0512 34.7773 25.635 34.6766 25.0606L34.6619 24.9444L34.6131 24.1475C34.4144 20.1662 34.8983 16.1782 36.0457 12.3565L37.1541 8.66511Z" fill="#746D68"/>
<path d="M52.1917 39.2649C52.1917 32.1256 46.4042 26.3381 39.2649 26.3381C32.1256 26.3381 26.3382 32.1256 26.3382 39.2649C26.3382 46.4042 32.1256 52.1916 39.2649 52.1917C46.4042 52.1917 52.1917 46.4042 52.1917 39.2649ZM54.4925 39.2649C54.4925 47.6748 47.6748 54.4924 39.2649 54.4924C30.855 54.4924 24.0374 47.6748 24.0374 39.2649C24.0374 30.855 30.855 24.0374 39.2649 24.0374C47.6748 24.0374 54.4925 30.855 54.4925 39.2649Z" fill="#746D68"/>
<path d="M31.11 39.2651C31.11 34.7613 34.7615 31.1099 39.2653 31.1099C42.7305 31.11 45.6883 33.2712 46.8698 36.3159L46.9792 36.6138L47.0114 36.7271C47.1441 37.2947 46.8275 37.8822 46.2643 38.0757C45.7011 38.2689 45.0914 37.9996 44.8473 37.4702L44.8034 37.3608L44.7253 37.1479C43.8764 34.9598 41.7502 33.4108 39.2653 33.4106C36.0321 33.4106 33.4108 36.032 33.4108 39.2651C33.411 42.4981 36.0323 45.1187 39.2653 45.1187C41.4186 45.1185 43.3022 43.9569 44.32 42.2202L44.3844 42.1216C44.7285 41.6511 45.3794 41.5082 45.8932 41.8091C46.4413 42.1303 46.6256 42.8352 46.3044 43.3833L46.1686 43.6069C44.7267 45.8954 42.1744 47.4193 39.2653 47.4194C34.7616 47.4194 31.1103 43.7687 31.11 39.2651ZM39.9801 36.9224C40.4294 36.4734 41.1579 36.4733 41.6071 36.9224C42.0562 37.3715 42.0561 38.1001 41.6071 38.5493L40.8913 39.2642L41.6071 39.98L41.6862 40.0669C42.0547 40.5187 42.0282 41.1858 41.6071 41.6069C41.1859 42.0281 40.5189 42.0545 40.067 41.686L39.9801 41.6069L39.2643 40.8911L38.5495 41.6069C38.1002 42.0559 37.3717 42.0561 36.9225 41.6069C36.4734 41.1578 36.4735 40.4292 36.9225 39.98L37.6374 39.2642L36.9225 38.5493C36.4736 38.1001 36.4734 37.3715 36.9225 36.9224C37.3716 36.4732 38.1002 36.4734 38.5495 36.9224L39.2643 37.6372L39.9801 36.9224Z" fill="#746D68"/>
</svg>
