<svg width="55" height="56" viewBox="0 0 55 56" fill="none" xmlns="http://www.w3.org/2000/svg">
<path d="M43.7719 44.7778C44.8199 44.7778 45.6728 44.917 46.3296 45.2104C47.0001 45.4899 47.4887 45.7981 47.824 46.1194L46.8045 48.0615C46.4971 47.796 46.0633 47.5587 45.5462 47.3491C45.0292 47.1395 44.4841 47.0134 43.9112 47.0134C43.5059 47.0134 43.1702 47.1115 42.9326 47.2931C42.6952 47.4887 42.5833 47.6985 42.5832 47.936C42.5832 48.2434 42.7237 48.4807 43.0172 48.6484C43.2967 48.8161 43.6598 48.9566 44.079 49.0824C44.4983 49.2082 44.9875 49.348 45.4766 49.4877C45.9797 49.6275 46.4549 49.8234 46.8741 50.061C47.2931 50.2984 47.6566 50.6052 47.936 50.9822C48.2155 51.3595 48.37 51.8638 48.37 52.5067C48.3699 53.5685 47.9923 54.4072 47.2099 55.022C46.4273 55.6369 45.3787 55.9446 44.079 55.9446C43.5759 55.9446 43.1007 55.8739 42.6255 55.7481C42.1504 55.6223 41.7028 55.4835 41.2976 55.3018C40.8923 55.1201 40.5428 54.9245 40.2494 54.7149C39.97 54.5054 39.7471 54.2811 39.6352 54.0994L40.9618 52.3252C41.1294 52.4927 41.3394 52.6598 41.6046 52.8274C41.8702 52.9951 42.1502 53.1356 42.4576 53.2614C42.7651 53.3732 43.0728 53.47 43.3802 53.5398C43.6877 53.6097 43.9677 53.6381 44.2332 53.6381C44.6383 53.638 44.974 53.541 45.2255 53.3733C45.4908 53.2057 45.6306 52.9397 45.6308 52.6186L45.6008 52.7128C45.5998 52.4346 45.4619 52.1975 45.1695 52.0304C44.89 51.8627 44.5256 51.7235 44.1063 51.5977C43.6872 51.472 43.2263 51.3321 42.7374 51.1924C42.2343 51.0526 41.7864 50.8571 41.3672 50.6055C40.9481 50.354 40.5848 50.0185 40.3053 49.6133C40.0259 49.208 39.8727 48.6907 39.8727 48.0479C39.8727 47.5308 39.9708 47.0556 40.1525 46.6503C40.3481 46.2452 40.6275 45.9102 40.9768 45.6308C41.3261 45.3514 41.7588 45.1278 42.2338 44.988C42.709 44.8482 43.2269 44.7778 43.7719 44.7778Z" fill="#726965"/>
<path fill-rule="evenodd" clip-rule="evenodd" d="M19.0772 44.6659C19.9575 44.666 20.768 44.8065 21.4806 45.0999C22.193 45.3793 22.8079 45.7698 23.3108 46.2586C23.8139 46.7617 24.2201 47.3494 24.4996 48.0342C24.779 48.7188 24.9322 49.4594 24.9322 50.2698C24.9322 51.0804 24.7931 51.8079 24.4996 52.5067C24.2201 53.1913 23.8285 53.7919 23.3395 54.2809C22.8364 54.784 22.2207 55.1615 21.5079 55.441C20.7953 55.7204 19.9845 55.875 19.1182 55.875C18.2518 55.875 17.4274 55.7344 16.7147 55.441C16.0022 55.1616 15.3875 54.7565 14.8845 54.2536C14.3814 53.7505 14.004 53.1628 13.7245 52.478C13.445 51.7933 13.2905 51.0529 13.2904 50.2425L13.2495 50.2848L13.2208 50.2984C13.2208 49.4878 13.36 48.7603 13.6535 48.0615C13.933 47.3768 14.3392 46.7764 14.8422 46.2873C15.3452 45.7843 15.9599 45.3794 16.6724 45.0999C17.3852 44.8204 18.1967 44.6659 19.0772 44.6659ZM19.0349 47.2931C18.6436 47.2931 18.2518 47.3636 17.8885 47.5033C17.5392 47.6431 17.2173 47.8387 16.9659 48.0902C16.7006 48.3556 16.4914 48.663 16.3517 49.0401C16.2119 49.4174 16.1415 49.8512 16.1415 50.2984H16.0856C16.0856 51.2067 16.3649 51.9338 16.9099 52.5067C17.4549 53.0797 18.1404 53.3583 18.9789 53.3583C19.8174 53.3583 20.5439 53.079 21.0889 52.534C21.634 51.9889 21.9133 51.2481 21.9133 50.3257C21.9132 49.8787 21.8442 49.4733 21.7045 49.096C21.5647 48.7187 21.3545 48.383 21.0889 48.1175C20.8235 47.8521 20.5156 47.643 20.1663 47.5033C19.817 47.3637 19.4261 47.2932 19.0349 47.2931Z" fill="#726965"/>
<path d="M10.4953 55.5802H7.76982V44.9034H10.4953V55.5802Z" fill="#726965"/>
<path d="M33.0378 44.7355C33.6667 44.7355 34.2683 44.8053 34.8134 44.973C35.3584 45.1407 35.8336 45.407 36.2109 45.7564C36.588 46.1056 36.895 46.5807 37.1185 47.1812C37.3282 47.7682 37.4543 48.4813 37.4543 49.3199V55.5802H34.7288V49.7948C34.7287 48.9424 34.5192 48.2989 34.0859 47.8937C33.6528 47.4887 33.0659 47.2795 32.3117 47.2795C31.8645 47.2795 31.4307 47.3776 31.0533 47.5593C30.6762 47.7549 30.3125 47.9917 30.0052 48.299V55.5802H27.2797V44.9034L29.9915 44.932H29.9779V45.9938C30.2853 45.6445 30.7185 45.3225 31.2635 45.0849C31.8084 44.8474 32.4091 44.7355 33.0378 44.7355Z" fill="#726965"/>
<path d="M45.6021 52.7155L45.5885 52.7578L45.6008 52.7128L45.6021 52.7155Z" fill="#726965"/>
<path d="M9.16738 39.4674C9.57257 39.4674 9.92252 39.6067 10.2579 39.9C10.5932 40.1795 10.7614 40.571 10.7615 41.0601C10.7615 41.6051 10.5933 42.0389 10.2579 42.3184C9.92254 42.5978 9.57254 42.7511 9.16738 42.7511C8.72047 42.7509 8.31523 42.6117 7.98 42.3184C7.64459 42.0389 7.47639 41.6051 7.47639 41.0601C7.47642 40.557 7.64462 40.1795 7.98 39.9C8.31524 39.6207 8.72044 39.4675 9.16738 39.4674Z" fill="#726965"/>
<path d="M42.1082 30.1867V30.285L37.5239 35.6514L35.68 34.1146V34.101L38.9501 30.229L35.6514 26.4144L37.427 24.8203L42.1082 30.1867Z" fill="#726965"/>
<path d="M47.0843 30.1867V30.285L42.4999 35.6514L40.6547 34.1146V34.101L43.9248 30.229L40.6274 26.4144L42.4017 24.8203L47.0843 30.1867Z" fill="#726965"/>
<path d="M14.4505 26.4144L11.1532 30.229L14.4232 34.101L12.578 35.6377L7.99365 30.2713V30.1867L12.6763 24.8203L14.4505 26.4144Z" fill="#726965"/>
<path d="M19.4402 26.4144L16.1415 30.229L19.4116 34.101L17.5677 35.6377L12.9834 30.2713V30.1867L17.6646 24.8203L19.4402 26.4144Z" fill="#726965"/>
<path d="M32.6324 30.9414H22.4442V28.5667H32.6324V30.9414Z" fill="#726965"/>
<path d="M40.0256 12.6763C40.0256 13.2631 40.096 13.6961 40.2357 13.9756C40.3755 14.2551 40.6134 14.4082 40.9209 14.4082C41.1304 14.4082 41.3265 14.3675 41.4941 14.2977C41.6616 14.2278 41.8288 14.1295 41.9963 14.0179L42.5695 16.1006C42.2622 16.3659 41.8851 16.5758 41.4381 16.7434C40.9911 16.911 40.4457 17.0081 39.8031 17.0082C38.9786 17.0082 38.3485 16.7432 37.9292 16.2261C37.51 15.709 37.2864 14.8978 37.2864 13.8077V0.13921H40.0256V12.6763Z" fill="#726965"/>
<path d="M5.21354 0C5.99588 6.21823e-05 6.68045 0.111884 7.28122 0.349389C7.86819 0.586974 8.37175 0.922661 8.77704 1.32795C9.18216 1.73316 9.46174 2.18093 9.65734 2.71186C9.85281 3.22871 9.9371 3.77347 9.93713 4.31823C9.93713 5.1007 9.82521 5.85554 9.58774 6.59609C9.35015 7.3368 9.04176 8.05059 8.63647 8.70744C8.23134 9.36401 7.81214 10.0065 7.33718 10.6072C6.86201 11.1942 6.38684 11.7262 5.93962 12.2013C5.49252 12.6764 5.05917 13.0817 4.65398 13.431C4.24877 13.7803 3.94097 14.0454 3.73137 14.2131H10.6359V16.757H0.195167V14.5761L0.027296 14.6184L0 14.6048C0.684793 13.9339 1.42498 13.2064 2.23555 12.4238C3.04609 11.6412 3.80133 10.8172 4.48611 9.95078C5.17085 9.09833 5.77155 8.24558 6.2467 7.39314C6.72187 6.54062 6.96049 5.70171 6.96049 4.9051C6.96044 4.23443 6.79256 3.71695 6.44323 3.33967C6.0939 2.9624 5.56244 2.76788 4.8778 2.76782C4.29092 2.76782 3.78724 2.96244 3.38198 3.33967C2.97677 3.71694 2.6967 4.26216 2.52898 4.97471L0.251124 3.9552C0.460744 2.7394 1.0058 1.77456 1.88616 1.06182C2.76662 0.349062 3.88587 0 5.21354 0Z" fill="#726965"/>
<path d="M24.3877 5.7854C25.2121 5.78544 25.911 5.95363 26.428 6.28901C26.945 6.62436 27.3082 7.02969 27.4898 7.5187C27.8672 7.01565 28.3701 6.6101 28.957 6.30266C29.544 5.99519 30.2571 5.82771 31.0957 5.82771C31.5987 5.82771 32.0457 5.89818 32.4509 6.03789C32.8562 6.17764 33.2066 6.38657 33.5141 6.708C33.8215 7.02941 34.0588 7.42102 34.2265 7.92404C34.3942 8.42716 34.4913 9.04253 34.4913 9.76926V16.7434L31.7808 16.6315V10.3698C31.7808 9.69901 31.6402 9.20999 31.3468 8.84665C31.0673 8.49737 30.592 8.32939 29.9492 8.32939C29.4465 8.32945 28.9998 8.44148 28.6226 8.67878C28.2454 8.91631 27.9513 9.19584 27.7696 9.55908V16.6315H25.0441V10.1746C25.0441 9.62955 24.9039 9.18206 24.5965 8.84665C24.289 8.51138 23.842 8.34304 23.2412 8.34304C22.7383 8.34306 22.3192 8.44124 21.9419 8.62282C21.5647 8.81843 21.2569 9.0979 21.0193 9.44716V16.6165H18.2938V5.93962H21.0193V7.127C21.3966 6.69393 21.8997 6.37231 22.4865 6.13479C23.0735 5.8972 23.7168 5.7854 24.3877 5.7854Z" fill="#726965"/>
<path d="M50.1306 5.89731C50.7592 5.89732 51.36 5.96722 51.9048 6.13479C52.4498 6.30248 52.925 6.56884 53.3024 6.91818C53.6796 7.26752 53.9877 7.74222 54.2113 8.34304C54.4209 8.93001 54.5471 9.64315 54.5471 10.4817V16.742H51.8215V10.9566C51.8215 10.1042 51.6119 9.46073 51.1787 9.05546C50.7455 8.65032 50.1577 8.4413 49.4031 8.4413C48.9561 8.44138 48.5233 8.5395 48.1461 8.72109C47.769 8.91665 47.4053 9.15356 47.098 9.46081V16.742H44.3725V6.06518L47.0843 6.09384H47.0693V7.15566C47.3767 6.80634 47.8101 6.48427 48.3549 6.2467C48.9 6.00912 49.5017 5.89731 50.1306 5.89731Z" fill="#726965"/>
<path d="M40.0406 0.13921H40.0256V0.125562L40.0406 0.13921Z" fill="#726965"/>
</svg>
