<svg width="38" height="48" viewBox="0 0 38 48" fill="none" xmlns="http://www.w3.org/2000/svg">
<path fill-rule="evenodd" clip-rule="evenodd" d="M15.4033 40.5246C16.1963 40.5248 16.638 40.9464 16.8388 41.3179H16.8584L16.8986 40.6247H17.631C17.6112 40.9535 17.5918 41.3231 17.5918 41.8797V44.5507C17.5918 45.605 17.3806 46.2474 16.9388 46.6491C16.497 47.0707 15.8444 47.2011 15.2621 47.2011C14.6798 47.2011 14.1078 47.0707 13.7364 46.8197L13.9472 46.1872C14.2484 46.378 14.7302 46.5491 15.2925 46.5491C16.1459 46.5491 16.779 46.1067 16.779 44.942V44.4301H16.7584C16.4973 44.8619 16.0054 45.2038 15.2925 45.2038C14.1579 45.2038 13.3343 44.2394 13.3343 42.9642C13.3344 41.408 14.349 40.5246 15.4033 40.5246ZM15.5533 41.1571C14.7603 41.1572 14.1885 41.8297 14.1884 42.8936C14.1884 43.7973 14.6398 44.5507 15.5435 44.5507C16.0555 44.5507 16.5178 44.2297 16.6986 43.6977C16.7488 43.5571 16.7682 43.396 16.7682 43.2554V42.422C16.7682 42.2815 16.7684 42.161 16.7182 42.0406C16.5675 41.5586 16.1557 41.1571 15.5533 41.1571Z" fill="#ADACAC"/>
<path fill-rule="evenodd" clip-rule="evenodd" d="M2.45036 40.5148C3.56476 40.5148 4.39851 41.458 4.39869 42.8534C4.39869 44.51 3.39443 45.3242 2.31015 45.3244C1.69766 45.3244 1.16535 45.0626 0.89425 44.6007H0.873659V47.1011H0.050988V42.121L0.040202 42.1111C0.040202 41.5188 0.0200811 41.0466 0 40.6148H0.754034L0.793255 41.4081H0.813846C1.15522 40.8458 1.69734 40.5149 2.45036 40.5148ZM2.18954 41.1669C1.61722 41.1669 1.0853 41.5788 0.924647 42.2014C0.894528 42.3018 0.863859 42.4321 0.863854 42.5426V43.3358C0.863855 43.4563 0.883985 43.5767 0.904056 43.6771C1.05466 44.2594 1.55675 44.6507 2.15914 44.6507C3.04271 44.6507 3.55443 43.9283 3.55445 42.874C3.55445 41.9503 3.07301 41.167 2.18954 41.1669Z" fill="#ADACAC"/>
<path fill-rule="evenodd" clip-rule="evenodd" d="M10.4025 40.504C11.6777 40.504 12.6117 41.4683 12.6117 42.874C12.6117 44.5709 11.4366 45.3136 10.3221 45.3136C9.07728 45.3135 8.12391 44.4002 8.12376 42.9446C8.12376 41.4084 9.12742 40.5041 10.4025 40.504ZM10.3829 41.1365C9.39898 41.1365 8.96707 42.0505 8.96702 42.924C8.96702 43.928 9.54912 44.6908 10.3623 44.6909C11.1755 44.6909 11.7585 43.9384 11.7586 42.9044C11.7586 42.1213 11.3667 41.1367 10.3829 41.1365Z" fill="#ADACAC"/>
<path fill-rule="evenodd" clip-rule="evenodd" d="M23.4456 40.5148C24.851 40.5149 25.1929 41.478 25.193 42.3916V44.1085C25.193 44.5101 25.2131 44.9023 25.2734 45.2136H24.5203L24.4497 44.6311H24.4193C24.1583 44.9925 23.6666 45.3134 23.0142 45.3136C22.0805 45.3136 21.6082 44.6613 21.6081 43.9987C21.6081 42.8842 22.5921 42.2815 24.3693 42.2916V42.2014C24.3693 41.8198 24.2689 41.1365 23.325 41.1365C22.8933 41.1365 22.4511 41.2678 22.1298 41.4787L21.9395 40.9257C22.3211 40.6748 22.8734 40.5148 23.4456 40.5148ZM24.3997 42.8642C23.4861 42.8441 22.4517 43.0044 22.4514 43.8977C22.4514 44.4398 22.8129 44.6909 23.2446 44.6909C23.8471 44.6909 24.2189 44.3099 24.3595 43.9183C24.3896 43.8381 24.4095 43.7377 24.4095 43.6575V42.8642H24.3997Z" fill="#ADACAC"/>
<path d="M35.8759 40.504C36.3377 40.504 36.7493 40.6349 37.0104 40.7855L36.7996 41.3983C36.6189 41.2879 36.2878 41.1268 35.8563 41.1267C35.3643 41.1267 35.0827 41.408 35.0827 41.7493C35.0827 42.1309 35.3539 42.3018 35.9563 42.5328C36.7495 42.834 37.1614 43.2355 37.1614 43.9183C37.1614 44.7214 36.5387 45.2939 35.4445 45.294C34.9425 45.294 34.4705 45.1729 34.1492 44.9822L34.36 44.3497C34.611 44.5103 35.0425 44.6811 35.4641 44.6811C36.0765 44.6811 36.3583 44.3801 36.3583 43.9987C36.3583 43.5971 36.1168 43.3864 35.5043 43.1554C34.681 42.8642 34.2894 42.4016 34.2894 41.8493C34.2897 41.1065 34.8921 40.5041 35.8759 40.504Z" fill="#ADACAC"/>
<path d="M31.6184 40.5148C32.2309 40.5148 33.1244 40.916 33.1245 42.5122V45.2234H32.3117V42.623C32.3117 41.7394 31.9901 41.2071 31.3174 41.2071C30.8457 41.2071 30.4746 41.5585 30.3339 41.97C30.2938 42.0803 30.2634 42.2411 30.2633 42.3916V45.2332H29.4495V42.4828C29.4495 41.7498 29.1282 41.2169 28.4856 41.2169C27.9638 41.2171 27.5827 41.6389 27.4521 42.0504C27.4019 42.1708 27.3815 42.3216 27.3815 42.4622V45.2332H26.5687V41.8797L26.5579 41.8601C26.5579 41.3882 26.5578 40.9964 26.5177 40.6148H27.2511L27.2913 41.3581H27.3217C27.5828 40.9163 28.004 40.5149 28.767 40.5148C29.3895 40.5148 29.8713 40.8963 30.0721 41.4385H30.0927C30.2333 41.1774 30.4138 40.9861 30.6045 40.8355C30.8756 40.6247 31.1869 40.5149 31.6184 40.5148Z" fill="#ADACAC"/>
<path d="M7.48052 40.5148C7.57084 40.5148 7.64147 40.5142 7.72173 40.5443V41.3375C7.64144 41.3174 7.55072 41.3081 7.44032 41.3081C6.84813 41.3083 6.43613 41.7494 6.31564 42.3818C6.29556 42.4922 6.27642 42.6334 6.27642 42.774V45.2234H5.45277V42.0611L5.44297 42.0504C5.44297 41.5083 5.44291 41.0465 5.40276 40.6148H6.13522L6.16562 41.5189H6.20582C6.41664 40.9065 6.91836 40.515 7.48052 40.5148Z" fill="#ADACAC"/>
<path d="M20.9551 40.5148C21.0454 40.5148 21.116 40.5142 21.1963 40.5443V41.3375C21.116 41.3175 21.0252 41.3081 20.9149 41.3081C20.3228 41.3083 19.9117 41.7495 19.7912 42.3818C19.7711 42.4922 19.751 42.6334 19.751 42.774V45.2234H18.9273V42.0611L18.9175 42.0504C18.9175 41.5083 18.9175 41.0465 18.8773 40.6148H19.6098L19.6402 41.5189H19.6804C19.8912 40.9066 20.3929 40.515 20.9551 40.5148Z" fill="#ADACAC"/>
<path d="M12.6421 33.8776C12.6421 35.8354 13.5052 36.6583 14.6698 36.6584C15.9651 36.6584 16.7887 35.8053 16.7888 33.8776V28.717H17.9232V33.807C17.9232 36.4878 16.5074 37.582 14.6198 37.582C12.8326 37.582 11.487 36.5579 11.487 33.857V28.717H12.6421V33.8776Z" fill="#ADACAC"/>
<path fill-rule="evenodd" clip-rule="evenodd" d="M29.5103 28.5758C31.8497 28.5759 33.4363 30.4037 33.4363 32.9941L33.4305 33.2608C33.3213 36.084 31.5392 37.5819 29.3799 37.582C27.1509 37.582 25.4539 35.7954 25.4538 33.1549C25.4538 30.3837 27.1708 28.5758 29.5103 28.5758ZM29.4701 29.4897C27.5924 29.4897 26.6687 31.2067 26.6687 33.1245C26.6687 34.9919 27.6826 36.6581 29.4495 36.6584C31.2166 36.6584 32.2508 35.0122 32.2509 33.0343C32.2509 31.2973 31.3476 29.4897 29.4701 29.4897Z" fill="#ADACAC"/>
<path d="M25.3636 29.6701H22.6926V37.4418H21.5581V29.6701H18.9067V28.717H25.3636V29.6701Z" fill="#ADACAC"/>
<path fill-rule="evenodd" clip-rule="evenodd" d="M10.5937 37.432H9.38865L8.45518 34.6904H5.36256L4.45851 37.432H3.29363L6.25583 28.7062H7.61093L10.5937 37.432ZM6.88828 29.7103C6.75776 30.2324 6.61771 30.7549 6.44704 31.287L5.59299 33.807H8.22083L7.3707 31.3066C7.17999 30.7344 7.04918 30.2223 6.91867 29.7103H6.88828Z" fill="#ADACAC"/>
<path fill-rule="evenodd" clip-rule="evenodd" d="M18.6763 0C23.1642 3.69173e-05 25.4133 2.8213 25.4136 5.70281C25.4136 7.66069 24.4497 9.76968 21.5983 11.1252V11.236C24.4898 12.3806 26.2666 14.4087 26.2666 17.23C26.2666 21.2563 22.813 23.9673 18.3851 23.9673C13.5354 23.9673 10.6133 21.0756 10.6133 17.6918L10.6231 17.682C10.6231 14.7602 12.3704 12.6911 15.2219 11.4762L15.1817 11.3664C12.6114 10.1515 11.5076 8.15264 11.5076 6.16464C11.5079 2.49 14.61 0 18.6763 0ZM17.9938 12.4803C15.2829 13.2635 13.8266 15.0514 13.8266 17.2604C13.7163 19.6098 15.5036 21.6777 18.4655 21.6777C21.4274 21.6777 23.1044 19.9305 23.1044 17.5408H23.0946C23.0944 14.7197 21.1363 13.3739 17.9938 12.4803ZM18.4959 2.24935C15.8955 2.24935 14.469 3.95591 14.4688 5.95382C14.4688 8.27323 16.2163 9.51902 18.8871 10.2319C20.8852 9.55918 22.421 8.13297 22.421 6.02442C22.4209 4.16702 21.317 2.24954 18.4959 2.24935Z" fill="#ADACAC"/>
</svg>
