<svg width="52" height="66" viewBox="0 0 52 66" fill="none" xmlns="http://www.w3.org/2000/svg">
<path fill-rule="evenodd" clip-rule="evenodd" d="M21.4397 56.4059C22.5435 56.4061 23.1583 56.993 23.4378 57.51H23.4651L23.521 56.5451H24.5405C24.5128 57.0028 24.4859 57.5173 24.4859 58.2921V62.0098C24.4859 63.4772 24.1919 64.3715 23.577 64.9305C22.962 65.5173 22.0537 65.6989 21.2432 65.6989C20.4327 65.6988 19.6365 65.5173 19.1195 65.168L19.413 64.2877C19.8322 64.5532 20.5029 64.7913 21.2855 64.7913C22.4734 64.7913 23.3545 64.1755 23.3545 62.5544V61.8419H23.3258C22.9625 62.4429 22.2777 62.9188 21.2855 62.9188C19.7062 62.9187 18.5599 61.5764 18.5599 59.8015C18.56 57.6354 19.9723 56.4059 21.4397 56.4059ZM21.6485 57.2862C20.5448 57.2864 19.7489 58.2224 19.7487 59.7033C19.7487 60.9611 20.3771 62.0098 21.6349 62.0098C22.3475 62.0098 22.991 61.563 23.2426 60.8224C23.3125 60.6268 23.3395 60.4026 23.3395 60.2069V59.0468C23.3395 58.8512 23.3397 58.6836 23.2699 58.5159C23.0602 57.8451 22.487 57.2862 21.6485 57.2862Z" fill="#726965"/>
<path fill-rule="evenodd" clip-rule="evenodd" d="M3.41064 56.3923C4.96176 56.3923 6.12225 57.7051 6.1225 59.6473C6.1225 61.9531 4.72468 63.0864 3.21547 63.0866C2.36296 63.0866 1.62204 62.7223 1.2447 62.0794H1.21604V65.5596H0.0709697V58.6278L0.0559569 58.6142C0.0559569 57.7896 0.0279507 57.1324 0 56.5315H1.04953L1.10413 57.6356H1.13279C1.60794 56.853 2.36252 56.3923 3.41064 56.3923ZM3.0476 57.2999C2.251 57.2999 1.51062 57.8732 1.28701 58.7397C1.24509 58.8795 1.2024 59.061 1.20239 59.2147V60.3188C1.20239 60.4864 1.23041 60.6541 1.25835 60.7938C1.46797 61.6043 2.16682 62.1489 3.0053 62.149C4.23513 62.149 4.94739 61.1434 4.94741 59.676C4.94741 58.3903 4.2773 57.3 3.0476 57.2999Z" fill="#726965"/>
<path fill-rule="evenodd" clip-rule="evenodd" d="M14.4792 56.3773C16.2541 56.3773 17.5541 57.7194 17.5541 59.676C17.5541 62.0378 15.9186 63.0716 14.3673 63.0716C12.6346 63.0715 11.3076 61.8003 11.3074 59.7743C11.3074 57.6361 12.7044 56.3773 14.4792 56.3773ZM14.4519 57.2576C13.0824 57.2576 12.4812 58.5298 12.4811 59.7456C12.4811 61.143 13.2913 62.2048 14.4232 62.205C15.5551 62.205 16.3665 61.1575 16.3667 59.7183C16.3667 58.6283 15.8212 57.2579 14.4519 57.2576Z" fill="#726965"/>
<path fill-rule="evenodd" clip-rule="evenodd" d="M32.6338 56.3923C34.59 56.3923 35.0657 57.7329 35.0659 59.0045V61.3943C35.0659 61.9533 35.0939 62.4992 35.1778 62.9324H34.1296L34.0314 62.1217H33.989C33.6257 62.6247 32.9413 63.0714 32.0333 63.0716C30.7337 63.0716 30.0763 62.1637 30.0762 61.2414C30.0762 59.6901 31.4458 58.8513 33.9194 58.8653V58.7397C33.9194 58.2087 33.7796 57.2576 32.4659 57.2576C31.865 57.2576 31.2494 57.4404 30.8022 57.7339L30.5375 56.9641C31.0685 56.6149 31.8374 56.3923 32.6338 56.3923ZM33.9618 59.6623C32.6902 59.6344 31.2503 59.8575 31.2499 61.1008C31.2499 61.8555 31.7531 62.2049 32.354 62.205C33.1925 62.205 33.7101 61.6745 33.9058 61.1295C33.9477 61.0178 33.9753 60.8782 33.9754 60.7665V59.6623H33.9618Z" fill="#726965"/>
<path d="M49.9354 56.3773C50.5782 56.3773 51.1511 56.5594 51.5145 56.769L51.221 57.622C50.9696 57.4683 50.5087 57.2441 49.9081 57.2439C49.2233 57.2439 48.8313 57.6354 48.8313 58.1106C48.8313 58.6416 49.2088 58.8796 50.0473 59.201C51.1513 59.6203 51.7247 60.1792 51.7247 61.1295C51.7246 62.2474 50.8579 63.0442 49.3349 63.0443C48.6361 63.0443 47.9792 62.8758 47.532 62.6103L47.8254 61.73C48.1748 61.9536 48.7753 62.1912 49.3622 62.1913C50.2146 62.1913 50.6068 61.7724 50.6069 61.2414C50.6069 60.6824 50.2706 60.3891 49.4181 60.0677C48.2722 59.6624 47.7271 59.0184 47.7271 58.2498C47.7275 57.2159 48.5661 56.3773 49.9354 56.3773Z" fill="#726965"/>
<path d="M44.0094 56.3923C44.8619 56.3923 46.1056 56.9506 46.1058 59.1724V62.9461H44.9743V59.3266C44.9743 58.0967 44.5268 57.3558 43.5904 57.3558C42.9339 57.3559 42.4173 57.8449 42.2215 58.4176C42.1657 58.5712 42.1233 58.795 42.1233 59.0045V62.9597H40.9905V59.1314C40.9905 58.1112 40.5433 57.3695 39.6489 57.3695C38.9226 57.3697 38.3922 57.9568 38.2104 58.5296C38.1405 58.6972 38.1121 58.9072 38.1121 59.1028V62.9597H36.9807V58.2921L36.9657 58.2648C36.9657 57.6079 36.9656 57.0625 36.9097 56.5315H37.9306L37.9865 57.566H38.0289C38.3922 56.9511 38.9785 56.3923 40.0406 56.3923C40.9071 56.3923 41.5776 56.9232 41.8571 57.6779H41.8858C42.0814 57.3146 42.3327 57.0482 42.5982 56.8386C42.9755 56.5452 43.4087 56.3923 44.0094 56.3923Z" fill="#726965"/>
<path d="M10.4121 56.3923C10.5378 56.3923 10.6361 56.3914 10.7478 56.4332V57.5373C10.6361 57.5094 10.5098 57.4964 10.3561 57.4964C9.53185 57.4966 8.9584 58.1106 8.79069 58.9909C8.76274 59.1446 8.7361 59.3411 8.7361 59.5368V62.9461H7.58967V58.5446L7.57602 58.5296C7.57602 57.7751 7.57595 57.1323 7.52006 56.5315H8.53957L8.58188 57.7898H8.63784C8.93127 56.9375 9.62961 56.3925 10.4121 56.3923Z" fill="#726965"/>
<path d="M29.1672 56.3923C29.2929 56.3923 29.3913 56.3914 29.5029 56.4332V57.5373C29.3912 57.5094 29.2649 57.4964 29.1112 57.4964C28.2871 57.4967 27.7149 58.1108 27.5472 58.9909C27.5192 59.1446 27.4912 59.3411 27.4912 59.5368V62.9461H26.3448V58.5446L26.3311 58.5296C26.3311 57.7751 26.3311 57.1323 26.2752 56.5315H27.2947L27.337 57.7898H27.393C27.6864 56.9375 28.3848 56.3925 29.1672 56.3923Z" fill="#726965"/>
<path d="M17.5964 47.1539C17.5964 49.879 18.7978 51.0244 20.4188 51.0245C22.2216 51.0245 23.3681 49.8371 23.3681 47.1539V39.971H24.9472V47.0557C24.9472 50.7871 22.9766 52.3101 20.3492 52.3101C17.8616 52.3101 15.9887 50.8847 15.9887 47.1253V39.971H17.5964V47.1539Z" fill="#726965"/>
<path fill-rule="evenodd" clip-rule="evenodd" d="M41.0751 39.7744C44.3313 39.7745 46.5398 42.3186 46.5398 45.9242L46.5316 46.2955C46.3797 50.225 43.8992 52.31 40.8936 52.3101C37.7911 52.3101 35.4291 49.8234 35.4289 46.1481C35.4289 42.2908 37.8188 39.7744 41.0751 39.7744ZM41.0191 41.0464C38.4057 41.0464 37.1199 43.4364 37.1199 46.1058C37.1199 48.705 38.5312 51.0241 40.9905 51.0245C43.4501 51.0245 44.8896 48.7332 44.8897 45.9802C44.8897 43.5625 43.6325 41.0465 41.0191 41.0464Z" fill="#726965"/>
<path d="M35.3034 41.2976H31.5856V52.115H30.0065V41.2976H26.3161V39.971H35.3034V41.2976Z" fill="#726965"/>
<path fill-rule="evenodd" clip-rule="evenodd" d="M14.7453 52.1013H13.068L11.7687 48.2853H7.46411L6.20576 52.1013H4.58437L8.70744 39.956H10.5936L14.7453 52.1013ZM9.58774 41.3535C9.40607 42.0802 9.21114 42.8075 8.97358 43.5481L7.78483 47.0557H11.4425L10.2592 43.5754C9.99376 42.779 9.8117 42.0661 9.63005 41.3535H9.58774Z" fill="#726965"/>
<path fill-rule="evenodd" clip-rule="evenodd" d="M25.9954 0C32.2421 5.13849e-05 35.3726 3.92694 35.373 7.93769C35.373 10.6629 34.0313 13.5983 30.0625 15.485V15.6393C34.0872 17.2325 36.5603 20.0553 36.5603 23.9823C36.5603 29.5865 31.7532 33.3598 25.59 33.3599C18.8398 33.3599 14.7726 29.3349 14.7726 24.6251L14.7863 24.6115C14.7863 20.5447 17.2182 17.6647 21.1872 15.9736L21.1312 15.8208C17.5537 14.1297 16.0173 11.3476 16.0173 8.58051C16.0177 3.46581 20.3355 0 25.9954 0ZM25.0455 17.3712C21.2721 18.4613 19.2451 20.95 19.2451 24.0246C19.0916 27.2947 21.5793 30.1731 25.702 30.1731C29.8246 30.173 32.1588 27.7411 32.1588 24.415H32.1452C32.1449 20.4883 29.4194 18.615 25.0455 17.3712ZM25.7443 3.13086C22.1249 3.13086 20.1393 5.5062 20.139 8.28708C20.139 11.5154 22.5713 13.2494 26.2888 14.2417C29.07 13.3053 31.2076 11.3202 31.2076 8.38535C31.2075 5.80004 29.6709 3.13111 25.7443 3.13086Z" fill="#726965"/>
</svg>
