<svg width="35" height="35" viewBox="0 0 35 35" fill="none" xmlns="http://www.w3.org/2000/svg">
<path d="M20.5858 6.38864C20.5858 4.42843 18.9968 2.83936 17.0365 2.83936C15.0763 2.83936 13.4873 4.42842 13.4873 6.38864V19.532C11.7751 20.6781 10.6478 22.6299 10.6478 24.8449C10.6478 28.3733 13.5082 31.2336 17.0365 31.2336C20.5649 31.2336 23.4253 28.3733 23.4253 24.8449C23.4253 22.6299 22.298 20.6781 20.5858 19.532V6.38864Z" stroke="#F5D4AC" stroke-width="2.32317" stroke-linecap="round" stroke-linejoin="round"/>
<path d="M17.0365 26.2646C17.8206 26.2646 18.4563 25.629 18.4563 24.8449C18.4563 24.0608 17.8206 23.4252 17.0365 23.4252C16.2525 23.4252 15.6168 24.0608 15.6168 24.8449C15.6168 25.629 16.2525 26.2646 17.0365 26.2646Z" stroke="#F5D4AC" stroke-width="2.32317" stroke-linecap="round" stroke-linejoin="round"/>
</svg>
