<svg width="35" height="35" viewBox="0 0 35 35" fill="none" xmlns="http://www.w3.org/2000/svg">
<path d="M13.5004 6.62519C14.0203 6.04429 14.7759 5.67871 15.6168 5.67871C17.185 5.67871 18.4562 6.94997 18.4562 8.51814C18.4562 10.0863 17.185 11.3576 15.6168 11.3576H2.83939M17.7595 27.4477C18.2795 28.0286 19.035 28.3941 19.876 28.3941C21.4441 28.3941 22.7154 27.1229 22.7154 25.5547C22.7154 23.9865 21.4441 22.7153 19.876 22.7153H2.83939M23.7999 9.93786C24.5798 9.06651 25.7131 8.51814 26.9745 8.51814C29.3268 8.51814 31.2337 10.425 31.2337 12.7773C31.2337 15.1295 29.3268 17.0364 26.9745 17.0364H2.83936" stroke="#F5D4AC" stroke-width="2.32317" stroke-linecap="round" stroke-linejoin="round"/>
</svg>
