<svg width="213" height="212" viewBox="0 0 213 212" fill="none" xmlns="http://www.w3.org/2000/svg">
<path d="M106.414 0L126.035 14.6883L149.935 9.25063L161.885 30.6498L185.93 35.403L188.144 59.813L208.177 73.9352L200.271 97.1352L212.828 118.185L196.169 136.163L199.079 160.5L176.547 170.149L169.307 193.565L144.799 193.215L128.66 211.662L106.414 201.374L84.1673 211.662L68.0285 193.215L43.5208 193.565L36.2803 170.149L13.7491 160.5L16.6588 136.163L-2.28882e-05 118.185L12.5568 97.1352L4.65077 73.9352L24.6835 59.813L26.8973 35.403L50.9422 30.6498L62.893 9.25063L86.7924 14.6883L106.414 0Z" fill="white"/>
</svg>
