<svg width="233" height="232" viewBox="0 0 233 232" fill="none" xmlns="http://www.w3.org/2000/svg">
<path d="M116.359 0L137.814 16.061L163.947 10.1152L177.015 33.5143L203.307 38.7117L205.728 65.403L227.633 80.845L218.988 106.213L232.718 129.23L214.502 148.889L217.684 175.5L193.047 186.05L185.13 211.655L158.332 211.272L140.685 231.443L116.359 220.194L92.0333 231.443L74.3862 211.272L47.5881 211.655L39.6709 186.05L15.034 175.5L18.2157 148.889L-5.34058e-05 129.23L13.7303 106.213L5.0854 80.845L26.9904 65.403L29.4111 38.7117L55.7031 33.5143L68.7708 10.1152L94.9038 16.061L116.359 0Z" fill="#625B56"/>
</svg>
