<svg width="180" height="179" viewBox="0 0 180 179" fill="none" xmlns="http://www.w3.org/2000/svg">
<path d="M89.507 0L106.011 12.3546L126.113 7.78091L136.165 25.7802L156.39 29.7782L158.252 50.31L175.102 62.1885L168.452 81.7025L179.014 99.4076L165.002 114.53L167.449 135L148.498 143.116L142.408 162.812L121.794 162.517L108.219 178.033L89.507 169.38L70.7949 178.033L57.2202 162.517L36.6063 162.812L30.5161 143.116L11.5647 135L14.0121 114.53L-1.52588e-05 99.4076L10.5618 81.7025L3.91187 62.1885L20.7619 50.31L22.6239 29.7782L42.8486 25.7802L52.9007 7.78091L73.0029 12.3546L89.507 0Z" fill="#4B4B4B"/>
</svg>
