<svg width="180" height="179" viewBox="0 0 180 179" fill="none" xmlns="http://www.w3.org/2000/svg">
<path d="M89.5071 0L106.011 12.3546L126.113 7.78091L136.165 25.7802L156.39 29.7782L158.252 50.31L175.102 62.1885L168.452 81.7025L179.014 99.4076L165.002 114.53L167.449 135L148.498 143.116L142.408 162.812L121.794 162.517L108.219 178.033L89.5071 169.38L70.795 178.033L57.2203 162.517L36.6064 162.812L30.5162 143.116L11.5648 135L14.0122 114.53L0.000106812 99.4076L10.5619 81.7025L3.91199 62.1885L20.762 50.31L22.624 29.7782L42.8487 25.7802L52.9008 7.78091L73.0031 12.3546L89.5071 0Z" fill="#746D68"/>
</svg>
